{
    "asset" : {
        "generator" : "Khronos glTF Blender I/O v3.4.50",
        "version" : "2.0"
    },
    "scene" : 0,
    "scenes" : [
        {
            "name" : "Scene",
            "nodes" : [
                0,
                1
            ]
        }
    ],
    "nodes" : [
        {
            "mesh" : 0,
            "name" : "BezierCurve",
            "scale" : [
                1.2261897325515747,
                1.8822969198226929,
                4.892266273498535
            ],
            "translation" : [
                1.0687189102172852,
                3.3676695823669434,
                -1.5636165142059326
            ]
        },
        {
            "mesh" : 1,
            "name" : "BezierCurve.001",
            "rotation" : [
                0,
                0,
                -1,
                0
            ],
            "scale" : [
                -1.360754370689392,
                -2.1995749473571777,
                -4.173669338226318
            ],
            "translation" : [
                1.1196565628051758,
                3.36665678024292,
                -3.609311103820801
            ]
        }
    ],
    "materials" : [
        {
            "doubleSided" : true,
            "name" : "Material.001",
            "pbrMetallicRoughness" : {
                "baseColorFactor" : [
                    0.37774237990379333,
                    0.3921765685081482,
                    0.8000000715255737,
                    1
                ],
                "metallicFactor" : 0,
                "roughnessFactor" : 0.5
            }
        },
        {
            "doubleSided" : true,
            "name" : "Material.002",
            "pbrMetallicRoughness" : {
                "baseColorFactor" : [
                    0.800000011920929,
                    0.800000011920929,
                    0.800000011920929,
                    1
                ],
                "metallicFactor" : 0,
                "roughnessFactor" : 0.5
            }
        }
    ],
    "meshes" : [
        {
            "name" : "BezierCurve",
            "primitives" : [
                {
                    "attributes" : {
                        "POSITION" : 0,
                        "TEXCOORD_0" : 1,
                        "NORMAL" : 2
                    },
                    "indices" : 3,
                    "material" : 0
                }
            ]
        },
        {
            "name" : "BezierCurve.001",
            "primitives" : [
                {
                    "attributes" : {
                        "POSITION" : 4,
                        "TEXCOORD_0" : 5,
                        "NORMAL" : 6
                    },
                    "indices" : 7,
                    "material" : 1
                }
            ]
        }
    ],
    "accessors" : [
        {
            "bufferView" : 0,
            "componentType" : 5126,
            "count" : 757,
            "max" : [
                1,
                0.12999999523162842,
                0.04999999701976776
            ],
            "min" : [
                -1.0353553295135498,
                -0.12999999523162842,
                -0.27222222089767456
            ],
            "type" : "VEC3"
        },
        {
            "bufferView" : 1,
            "componentType" : 5126,
            "count" : 757,
            "type" : "VEC2"
        },
        {
            "bufferView" : 2,
            "componentType" : 5126,
            "count" : 757,
            "type" : "VEC3"
        },
        {
            "bufferView" : 3,
            "componentType" : 5123,
            "count" : 4080,
            "type" : "SCALAR"
        },
        {
            "bufferView" : 4,
            "componentType" : 5126,
            "count" : 757,
            "max" : [
                1,
                0.12000000476837158,
                0.04999999701976776
            ],
            "min" : [
                -1.0353553295135498,
                -0.12000000476837158,
                -0.27222222089767456
            ],
            "type" : "VEC3"
        },
        {
            "bufferView" : 5,
            "componentType" : 5126,
            "count" : 757,
            "type" : "VEC2"
        },
        {
            "bufferView" : 6,
            "componentType" : 5126,
            "count" : 757,
            "type" : "VEC3"
        },
        {
            "bufferView" : 7,
            "componentType" : 5123,
            "count" : 4080,
            "type" : "SCALAR"
        }
    ],
    "bufferViews" : [
        {
            "buffer" : 0,
            "byteLength" : 9084,
            "byteOffset" : 0,
            "target" : 34962
        },
        {
            "buffer" : 0,
            "byteLength" : 6056,
            "byteOffset" : 9084,
            "target" : 34962
        },
        {
            "buffer" : 0,
            "byteLength" : 9084,
            "byteOffset" : 15140,
            "target" : 34962
        },
        {
            "buffer" : 0,
            "byteLength" : 8160,
            "byteOffset" : 24224,
            "target" : 34963
        },
        {
            "buffer" : 0,
            "byteLength" : 9084,
            "byteOffset" : 32384,
            "target" : 34962
        },
        {
            "buffer" : 0,
            "byteLength" : 6056,
            "byteOffset" : 41468,
            "target" : 34962
        },
        {
            "buffer" : 0,
            "byteLength" : 9084,
            "byteOffset" : 47524,
            "target" : 34962
        },
        {
            "buffer" : 0,
            "byteLength" : 8160,
            "byteOffset" : 56608,
            "target" : 34963
        }
    ],
    "buffers" : [
        {
            "byteLength" : 64768,
            "uri" : "chromosome.bin"
        }
    ]
}
